<svg width="40" height="40" viewBox="0 0 40 40" fill="none" xmlns="http://www.w3.org/2000/svg">
<g clip-path="url(#clip0_629_22347)">
<rect x="1" y="1" width="38" height="38" rx="15" stroke="url(#paint0_linear_629_22347)" stroke-width="2"/>
<path d="M31.6444 11.4275C31.8815 11.6574 32 11.9448 32 12.2896C32 12.6344 31.8815 12.9218 31.6444 13.1517L20.3259 24.1287L16.8296 20.7379L28.1481 9.76085C28.3852 9.53096 28.6815 9.41602 29.037 9.41602C29.3926 9.41602 29.6889 9.53096 29.9259 9.76085L31.6444 11.4275ZM11.6148 24.0137C12.3654 23.2857 13.2543 22.9218 14.2815 22.9218C15.3086 22.9218 16.1975 23.2857 16.9481 24.0137C17.6988 24.7417 18.0741 25.6038 18.0741 26.5999C18.0741 27.9409 17.5802 29.0903 16.5926 30.0482C15.6049 31.0061 14.4197 31.485 13.037 31.485C10.9827 31.485 9.3037 30.6612 8 29.0137C8.59259 29.0137 9.14568 28.803 9.65926 28.3815C10.2123 27.9218 10.4889 27.3279 10.4889 26.5999C10.4889 25.6038 10.8642 24.7417 11.6148 24.0137Z" fill="white"/>
<path d="M31.6444 11.4275C31.8815 11.6574 32 11.9448 32 12.2896C32 12.6344 31.8815 12.9218 31.6444 13.1517L20.3259 24.1287L16.8296 20.7379L28.1481 9.76085C28.3852 9.53096 28.6815 9.41602 29.037 9.41602C29.3926 9.41602 29.6889 9.53096 29.9259 9.76085L31.6444 11.4275ZM11.6148 24.0137C12.3654 23.2857 13.2543 22.9218 14.2815 22.9218C15.3086 22.9218 16.1975 23.2857 16.9481 24.0137C17.6988 24.7417 18.0741 25.6038 18.0741 26.5999C18.0741 27.9409 17.5802 29.0903 16.5926 30.0482C15.6049 31.0061 14.4197 31.485 13.037 31.485C10.9827 31.485 9.3037 30.6612 8 29.0137C8.59259 29.0137 9.14568 28.803 9.65926 28.3815C10.2123 27.9218 10.4889 27.3279 10.4889 26.5999C10.4889 25.6038 10.8642 24.7417 11.6148 24.0137Z" fill="white"/>
<path d="M31.6444 11.4275C31.8815 11.6574 32 11.9448 32 12.2896C32 12.6344 31.8815 12.9218 31.6444 13.1517L20.3259 24.1287L16.8296 20.7379L28.1481 9.76085C28.3852 9.53096 28.6815 9.41602 29.037 9.41602C29.3926 9.41602 29.6889 9.53096 29.9259 9.76085L31.6444 11.4275ZM11.6148 24.0137C12.3654 23.2857 13.2543 22.9218 14.2815 22.9218C15.3086 22.9218 16.1975 23.2857 16.9481 24.0137C17.6988 24.7417 18.0741 25.6038 18.0741 26.5999C18.0741 27.9409 17.5802 29.0903 16.5926 30.0482C15.6049 31.0061 14.4197 31.485 13.037 31.485C10.9827 31.485 9.3037 30.6612 8 29.0137C8.59259 29.0137 9.14568 28.803 9.65926 28.3815C10.2123 27.9218 10.4889 27.3279 10.4889 26.5999C10.4889 25.6038 10.8642 24.7417 11.6148 24.0137Z" fill="url(#paint1_linear_629_22347)"/>
<path fill-rule="evenodd" clip-rule="evenodd" d="M20 13.7627C19.9458 13.7633 19.8913 13.7636 19.8366 13.7636C16.3151 13.7636 13.8418 12.5681 12.3338 11.4989C11.0322 10.5759 10.5827 9.00483 10.687 7.45667L10.807 5.67488C10.8316 5.3094 10.5288 5 10.1465 5C9.80566 5 9.52056 5.24798 9.48773 5.57298L9.45073 5.93928C9.33181 7.11655 9.04203 8.28046 8.7523 9.44417L8.7523 9.44417L8.7523 9.44418C8.40785 10.8276 8.06348 12.2108 8.00633 13.6159C7.92307 15.663 8.6415 17.8581 11.3425 18.7713C12.8482 19.2805 14.1018 19.2375 15.1293 18.9043L20.4323 13.7612C20.3434 13.7628 20.2537 13.7636 20.1634 13.7636C20.1087 13.7636 20.0542 13.7633 20 13.7627ZM18.3331 31.8428C17.5726 32.5803 16.7158 33.1316 15.7818 33.4901C16.2323 34.1637 16.6365 34.8583 16.9597 35.45C17.4686 36.3816 18.419 37 19.4664 37H20H20.5336C21.581 37 22.5314 36.3816 23.0403 35.45C23.7555 34.1406 24.8676 32.3272 26 31.352C27.9038 29.7127 32 28.6044 32 28.6044C32 28.6044 31.7082 27.1853 31.4 26.3147C31.0713 25.3863 30.35 24.025 30.35 24.025C30.35 24.025 26.3784 24.9142 22.7484 25.2618L22.0664 25.9233L20.5315 27.4119C20.3503 29.114 19.5949 30.6191 18.3331 31.8428ZM29.2771 6.92312C29.7884 6.95349 30.2914 7.08178 30.7573 7.31695C30.6686 6.85925 30.5958 6.40029 30.5493 5.93928L30.5123 5.57298C30.4794 5.24798 30.1943 5 29.8535 5C29.4712 5 29.1684 5.3094 29.193 5.67488L29.2771 6.92312Z" fill="#E86F00"/>
<path fill-rule="evenodd" clip-rule="evenodd" d="M20 13.7627C19.9458 13.7633 19.8913 13.7636 19.8366 13.7636C16.3151 13.7636 13.8418 12.5681 12.3338 11.4989C11.0322 10.5759 10.5827 9.00483 10.687 7.45667L10.807 5.67488C10.8316 5.3094 10.5288 5 10.1465 5C9.80566 5 9.52056 5.24798 9.48773 5.57298L9.45073 5.93928C9.33181 7.11655 9.04203 8.28046 8.7523 9.44417L8.7523 9.44417L8.7523 9.44418C8.40785 10.8276 8.06348 12.2108 8.00633 13.6159C7.92307 15.663 8.6415 17.8581 11.3425 18.7713C12.8482 19.2805 14.1018 19.2375 15.1293 18.9043L20.4323 13.7612C20.3434 13.7628 20.2537 13.7636 20.1634 13.7636C20.1087 13.7636 20.0542 13.7633 20 13.7627ZM18.3331 31.8428C17.5726 32.5803 16.7158 33.1316 15.7818 33.4901C16.2323 34.1637 16.6365 34.8583 16.9597 35.45C17.4686 36.3816 18.419 37 19.4664 37H20H20.5336C21.581 37 22.5314 36.3816 23.0403 35.45C23.7555 34.1406 24.8676 32.3272 26 31.352C27.9038 29.7127 32 28.6044 32 28.6044C32 28.6044 31.7082 27.1853 31.4 26.3147C31.0713 25.3863 30.35 24.025 30.35 24.025C30.35 24.025 26.3784 24.9142 22.7484 25.2618L22.0664 25.9233L20.5315 27.4119C20.3503 29.114 19.5949 30.6191 18.3331 31.8428ZM29.2771 6.92312C29.7884 6.95349 30.2914 7.08178 30.7573 7.31695C30.6686 6.85925 30.5958 6.40029 30.5493 5.93928L30.5123 5.57298C30.4794 5.24798 30.1943 5 29.8535 5C29.4712 5 29.1684 5.3094 29.193 5.67488L29.2771 6.92312Z" fill="url(#paint2_linear_629_22347)"/>
</g>
<defs>
<linearGradient id="paint0_linear_629_22347" x1="20" y1="0" x2="20" y2="40" gradientUnits="userSpaceOnUse">
<stop stop-color="#FA516C"/>
<stop offset="1" stop-color="#FDB365"/>
</linearGradient>
<linearGradient id="paint1_linear_629_22347" x1="20.6222" y1="5.73786" x2="20.6222" y2="35.1631" gradientUnits="userSpaceOnUse">
<stop stop-color="#FA516C"/>
<stop offset="1" stop-color="#FDB365"/>
</linearGradient>
<linearGradient id="paint2_linear_629_22347" x1="20.5657" y1="22.7204" x2="20.5657" y2="37.8602" gradientUnits="userSpaceOnUse">
<stop stop-color="#FA516C"/>
<stop offset="1" stop-color="#FDB365"/>
</linearGradient>
<clipPath id="clip0_629_22347">
<rect width="40" height="40" rx="16" fill="white"/>
</clipPath>
</defs>
</svg>
