<svg width="40" height="40" viewBox="0 0 40 40" fill="none" xmlns="http://www.w3.org/2000/svg">
<g clip-path="url(#clip0_202_3984)">
<rect x="1" y="1" width="38" height="38" rx="15" stroke="url(#paint0_linear_202_3984)" stroke-width="2"/>
<path fill-rule="evenodd" clip-rule="evenodd" d="M13.1451 42.5002C13.2896 41.3697 13.4663 39.6946 13.4378 38.4377C13.4254 37.8869 13.372 37.3192 13.3168 36.7332C13.2061 35.556 13.0885 34.305 13.2816 32.969C13.5524 31.0959 14.6878 29.6877 14.6878 29.6877L10.0003 26.5627C10.0003 26.5627 8.7234 25.8109 8.59409 25.0002C8.50818 24.4616 8.74477 24.114 9.01442 23.7179C9.13695 23.5378 9.26631 23.3478 9.37534 23.1252C10.1869 21.4686 12.0316 19.219 12.0316 19.219C12.0316 19.219 12.4182 17.1651 13.2816 16.2502C13.2964 16.2345 13.3111 16.2189 13.3256 16.2036C13.719 15.7862 13.9777 15.5118 14.5316 15.3127C14.8809 15.1872 15.4691 15.1565 15.4691 15.1565V13.594L16.5628 10.7815L17.5003 7.03148C17.5003 7.03148 18.1253 5.31273 19.3753 5.00023C20.6253 4.68773 21.4066 5.15648 22.3441 5.93773C23.2816 6.71898 23.5941 7.18773 23.7503 7.65648C23.7503 7.65648 24.0737 8.70154 23.7503 9.21898C23.6795 9.33234 23.596 9.39679 23.5116 9.46196C23.4325 9.523 23.3527 9.58466 23.2816 9.68773C23.1486 9.8805 23.1424 10.0083 23.1345 10.1724C23.1324 10.216 23.1301 10.2621 23.1253 10.3127C23.1203 10.366 23.1197 10.4286 23.119 10.4954C23.1174 10.6398 23.1157 10.8042 23.0694 10.9377C22.9371 11.3189 22.8552 11.4585 22.6566 11.719C22.4118 12.04 22.1878 12.344 21.8753 12.8127C21.8303 12.8802 21.75 13.2832 21.7246 13.4103C21.7223 13.4219 21.7204 13.4312 21.7191 13.4377V13.4445C21.7191 13.7504 21.7191 13.7651 21.8753 14.0627C22.0595 14.4135 22.3378 14.5147 22.6923 14.6435C22.7316 14.6578 22.7717 14.6724 22.8128 14.6877C23.1623 14.818 23.5415 14.7553 23.872 14.7006C24.1363 14.6569 24.3696 14.6183 24.5316 14.6877C24.8962 14.844 25.7816 15.5002 26.4066 16.8752C27.0316 18.2502 28.7503 20.6773 29.5316 21.719C30.1045 22.2919 31.1566 23.594 30.7816 24.219C30.4066 24.844 27.917 27.2919 26.7191 28.4377C26.7191 28.4377 26.8753 28.9065 25.9378 29.5315C25.0003 30.1565 24.8441 30.3127 24.8441 30.3127L25.3128 31.8752C25.3128 31.8752 25.982 33.6837 26.4066 34.844C26.6744 35.5758 26.9189 36.1954 27.1494 36.7795C27.6097 37.946 28.0144 38.9715 28.4378 40.469C28.6163 41.1001 28.8276 41.9706 28.9532 42.5002H24.35C23.806 41.4877 22.7267 39.4526 22.0316 37.969C21.5217 36.8806 20.7816 35.1565 20.7816 35.1565L19.3753 34.219C19.3753 34.219 18.769 37.4997 18.1253 39.5315C17.8326 40.4556 17.3655 41.647 17.0182 42.5002H13.1451ZM24.2191 25.3127L24.3753 27.6565L25.1566 27.0315L25.7816 27.1877C25.7816 27.1877 26.5746 26.3569 27.0316 25.7815C27.7157 24.92 28.5941 23.4377 28.5941 23.4377C28.5941 23.4377 27.705 22.6109 27.1878 22.0315C26.5214 21.2849 25.6253 20.0002 25.6253 20.0002C25.6253 20.0002 25.5154 20.5228 25.3128 20.7815C25.1247 21.0217 24.6878 21.2502 24.6878 21.2502C24.6878 21.2502 24.7432 22.3001 24.6878 22.969C24.6109 23.8992 24.2191 25.3127 24.2191 25.3127ZM15.3128 27.969C15.3128 27.969 13.6764 27.0614 12.8128 26.2502C12.1181 25.5977 11.2503 24.3752 11.2503 24.3752C11.2503 24.3752 12.371 22.3858 13.2816 21.2502C13.8491 20.5425 14.8441 19.5315 14.8441 19.5315C14.8441 19.5315 14.668 21.0202 15.0003 21.8752C15.2395 22.4904 15.9378 23.2815 15.9378 23.2815L15.6253 21.5627L16.8753 23.4377C16.8753 23.4377 16.3833 22.3171 16.4066 21.5627C16.418 21.1917 16.5628 20.6252 16.5628 20.6252L17.5003 22.8127L18.2816 24.5315C18.2816 24.5315 18.0559 25.3202 17.8128 25.7815C17.4486 26.4728 16.5628 27.344 16.5628 27.344H16.0941L15.3128 27.969Z" fill="white"/>
<path fill-rule="evenodd" clip-rule="evenodd" d="M13.1451 42.5002C13.2896 41.3697 13.4663 39.6946 13.4378 38.4377C13.4254 37.8869 13.372 37.3192 13.3168 36.7332C13.2061 35.556 13.0885 34.305 13.2816 32.969C13.5524 31.0959 14.6878 29.6877 14.6878 29.6877L10.0003 26.5627C10.0003 26.5627 8.7234 25.8109 8.59409 25.0002C8.50818 24.4616 8.74477 24.114 9.01442 23.7179C9.13695 23.5378 9.26631 23.3478 9.37534 23.1252C10.1869 21.4686 12.0316 19.219 12.0316 19.219C12.0316 19.219 12.4182 17.1651 13.2816 16.2502C13.2964 16.2345 13.3111 16.2189 13.3256 16.2036C13.719 15.7862 13.9777 15.5118 14.5316 15.3127C14.8809 15.1872 15.4691 15.1565 15.4691 15.1565V13.594L16.5628 10.7815L17.5003 7.03148C17.5003 7.03148 18.1253 5.31273 19.3753 5.00023C20.6253 4.68773 21.4066 5.15648 22.3441 5.93773C23.2816 6.71898 23.5941 7.18773 23.7503 7.65648C23.7503 7.65648 24.0737 8.70154 23.7503 9.21898C23.6795 9.33234 23.596 9.39679 23.5116 9.46196C23.4325 9.523 23.3527 9.58466 23.2816 9.68773C23.1486 9.8805 23.1424 10.0083 23.1345 10.1724C23.1324 10.216 23.1301 10.2621 23.1253 10.3127C23.1203 10.366 23.1197 10.4286 23.119 10.4954C23.1174 10.6398 23.1157 10.8042 23.0694 10.9377C22.9371 11.3189 22.8552 11.4585 22.6566 11.719C22.4118 12.04 22.1878 12.344 21.8753 12.8127C21.8303 12.8802 21.75 13.2832 21.7246 13.4103C21.7223 13.4219 21.7204 13.4312 21.7191 13.4377V13.4445C21.7191 13.7504 21.7191 13.7651 21.8753 14.0627C22.0595 14.4135 22.3378 14.5147 22.6923 14.6435C22.7316 14.6578 22.7717 14.6724 22.8128 14.6877C23.1623 14.818 23.5415 14.7553 23.872 14.7006C24.1363 14.6569 24.3696 14.6183 24.5316 14.6877C24.8962 14.844 25.7816 15.5002 26.4066 16.8752C27.0316 18.2502 28.7503 20.6773 29.5316 21.719C30.1045 22.2919 31.1566 23.594 30.7816 24.219C30.4066 24.844 27.917 27.2919 26.7191 28.4377C26.7191 28.4377 26.8753 28.9065 25.9378 29.5315C25.0003 30.1565 24.8441 30.3127 24.8441 30.3127L25.3128 31.8752C25.3128 31.8752 25.982 33.6837 26.4066 34.844C26.6744 35.5758 26.9189 36.1954 27.1494 36.7795C27.6097 37.946 28.0144 38.9715 28.4378 40.469C28.6163 41.1001 28.8276 41.9706 28.9532 42.5002H24.35C23.806 41.4877 22.7267 39.4526 22.0316 37.969C21.5217 36.8806 20.7816 35.1565 20.7816 35.1565L19.3753 34.219C19.3753 34.219 18.769 37.4997 18.1253 39.5315C17.8326 40.4556 17.3655 41.647 17.0182 42.5002H13.1451ZM24.2191 25.3127L24.3753 27.6565L25.1566 27.0315L25.7816 27.1877C25.7816 27.1877 26.5746 26.3569 27.0316 25.7815C27.7157 24.92 28.5941 23.4377 28.5941 23.4377C28.5941 23.4377 27.705 22.6109 27.1878 22.0315C26.5214 21.2849 25.6253 20.0002 25.6253 20.0002C25.6253 20.0002 25.5154 20.5228 25.3128 20.7815C25.1247 21.0217 24.6878 21.2502 24.6878 21.2502C24.6878 21.2502 24.7432 22.3001 24.6878 22.969C24.6109 23.8992 24.2191 25.3127 24.2191 25.3127ZM15.3128 27.969C15.3128 27.969 13.6764 27.0614 12.8128 26.2502C12.1181 25.5977 11.2503 24.3752 11.2503 24.3752C11.2503 24.3752 12.371 22.3858 13.2816 21.2502C13.8491 20.5425 14.8441 19.5315 14.8441 19.5315C14.8441 19.5315 14.668 21.0202 15.0003 21.8752C15.2395 22.4904 15.9378 23.2815 15.9378 23.2815L15.6253 21.5627L16.8753 23.4377C16.8753 23.4377 16.3833 22.3171 16.4066 21.5627C16.418 21.1917 16.5628 20.6252 16.5628 20.6252L17.5003 22.8127L18.2816 24.5315C18.2816 24.5315 18.0559 25.3202 17.8128 25.7815C17.4486 26.4728 16.5628 27.344 16.5628 27.344H16.0941L15.3128 27.969Z" fill="white"/>
<path fill-rule="evenodd" clip-rule="evenodd" d="M13.1451 42.5002C13.2896 41.3697 13.4663 39.6946 13.4378 38.4377C13.4254 37.8869 13.372 37.3192 13.3168 36.7332C13.2061 35.556 13.0885 34.305 13.2816 32.969C13.5524 31.0959 14.6878 29.6877 14.6878 29.6877L10.0003 26.5627C10.0003 26.5627 8.7234 25.8109 8.59409 25.0002C8.50818 24.4616 8.74477 24.114 9.01442 23.7179C9.13695 23.5378 9.26631 23.3478 9.37534 23.1252C10.1869 21.4686 12.0316 19.219 12.0316 19.219C12.0316 19.219 12.4182 17.1651 13.2816 16.2502C13.2964 16.2345 13.3111 16.2189 13.3256 16.2036C13.719 15.7862 13.9777 15.5118 14.5316 15.3127C14.8809 15.1872 15.4691 15.1565 15.4691 15.1565V13.594L16.5628 10.7815L17.5003 7.03148C17.5003 7.03148 18.1253 5.31273 19.3753 5.00023C20.6253 4.68773 21.4066 5.15648 22.3441 5.93773C23.2816 6.71898 23.5941 7.18773 23.7503 7.65648C23.7503 7.65648 24.0737 8.70154 23.7503 9.21898C23.6795 9.33234 23.596 9.39679 23.5116 9.46196C23.4325 9.523 23.3527 9.58466 23.2816 9.68773C23.1486 9.8805 23.1424 10.0083 23.1345 10.1724C23.1324 10.216 23.1301 10.2621 23.1253 10.3127C23.1203 10.366 23.1197 10.4286 23.119 10.4954C23.1174 10.6398 23.1157 10.8042 23.0694 10.9377C22.9371 11.3189 22.8552 11.4585 22.6566 11.719C22.4118 12.04 22.1878 12.344 21.8753 12.8127C21.8303 12.8802 21.75 13.2832 21.7246 13.4103C21.7223 13.4219 21.7204 13.4312 21.7191 13.4377V13.4445C21.7191 13.7504 21.7191 13.7651 21.8753 14.0627C22.0595 14.4135 22.3378 14.5147 22.6923 14.6435C22.7316 14.6578 22.7717 14.6724 22.8128 14.6877C23.1623 14.818 23.5415 14.7553 23.872 14.7006C24.1363 14.6569 24.3696 14.6183 24.5316 14.6877C24.8962 14.844 25.7816 15.5002 26.4066 16.8752C27.0316 18.2502 28.7503 20.6773 29.5316 21.719C30.1045 22.2919 31.1566 23.594 30.7816 24.219C30.4066 24.844 27.917 27.2919 26.7191 28.4377C26.7191 28.4377 26.8753 28.9065 25.9378 29.5315C25.0003 30.1565 24.8441 30.3127 24.8441 30.3127L25.3128 31.8752C25.3128 31.8752 25.982 33.6837 26.4066 34.844C26.6744 35.5758 26.9189 36.1954 27.1494 36.7795C27.6097 37.946 28.0144 38.9715 28.4378 40.469C28.6163 41.1001 28.8276 41.9706 28.9532 42.5002H24.35C23.806 41.4877 22.7267 39.4526 22.0316 37.969C21.5217 36.8806 20.7816 35.1565 20.7816 35.1565L19.3753 34.219C19.3753 34.219 18.769 37.4997 18.1253 39.5315C17.8326 40.4556 17.3655 41.647 17.0182 42.5002H13.1451ZM24.2191 25.3127L24.3753 27.6565L25.1566 27.0315L25.7816 27.1877C25.7816 27.1877 26.5746 26.3569 27.0316 25.7815C27.7157 24.92 28.5941 23.4377 28.5941 23.4377C28.5941 23.4377 27.705 22.6109 27.1878 22.0315C26.5214 21.2849 25.6253 20.0002 25.6253 20.0002C25.6253 20.0002 25.5154 20.5228 25.3128 20.7815C25.1247 21.0217 24.6878 21.2502 24.6878 21.2502C24.6878 21.2502 24.7432 22.3001 24.6878 22.969C24.6109 23.8992 24.2191 25.3127 24.2191 25.3127ZM15.3128 27.969C15.3128 27.969 13.6764 27.0614 12.8128 26.2502C12.1181 25.5977 11.2503 24.3752 11.2503 24.3752C11.2503 24.3752 12.371 22.3858 13.2816 21.2502C13.8491 20.5425 14.8441 19.5315 14.8441 19.5315C14.8441 19.5315 14.668 21.0202 15.0003 21.8752C15.2395 22.4904 15.9378 23.2815 15.9378 23.2815L15.6253 21.5627L16.8753 23.4377C16.8753 23.4377 16.3833 22.3171 16.4066 21.5627C16.418 21.1917 16.5628 20.6252 16.5628 20.6252L17.5003 22.8127L18.2816 24.5315C18.2816 24.5315 18.0559 25.3202 17.8128 25.7815C17.4486 26.4728 16.5628 27.344 16.5628 27.344H16.0941L15.3128 27.969Z" fill="url(#paint1_linear_202_3984)"/>
</g>
<defs>
<linearGradient id="paint0_linear_202_3984" x1="20" y1="0" x2="20" y2="40" gradientUnits="userSpaceOnUse">
<stop stop-color="#FA516C"/>
<stop offset="1" stop-color="#FDB365"/>
</linearGradient>
<linearGradient id="paint1_linear_202_3984" x1="19.7183" y1="4.90234" x2="19.7183" y2="42.5002" gradientUnits="userSpaceOnUse">
<stop stop-color="#FA516C"/>
<stop offset="1" stop-color="#FDB365"/>
</linearGradient>
<clipPath id="clip0_202_3984">
<rect width="40" height="40" rx="16" fill="white"/>
</clipPath>
</defs>
</svg>
